<svg width="100" height="100" viewBox="0 0 100 100" fill="none" xmlns="http://www.w3.org/2000/svg">
<circle cx="50" cy="50" r="50" fill="black"/>
<path d="M23 25C23.5523 25 24 25.4477 24 26V72C24 72.5523 24.4477 73 25 73H77C77.5523 73 78 73.4477 78 74V76C78 76.5523 77.5523 77 77 77H21C20.4477 77 20 76.5523 20 76V26C20 25.4477 20.4477 25 21 25H23Z" fill="#FFBF00"/>
<path d="M29.1489 65.7286C29.1489 66.1927 29.7262 66.4064 30.0284 66.0542L45.4846 48.0372C45.6719 47.8189 46.0043 47.8033 46.2113 48.0029L56.9747 58.3864C57.1784 58.5829 57.5045 58.5713 57.6937 58.3608L74.517 39.6418C74.69 39.4492 74.9815 39.4206 75.1887 39.5759L77.0747 40.9891C77.4252 41.2518 77.9201 40.9687 77.8714 40.5334L77.0542 33.2308C77.0241 32.9611 76.7844 32.7648 76.5141 32.7883L69.0351 33.438C68.5961 33.4762 68.4175 34.0225 68.7493 34.3126L70.6563 35.9798C70.868 36.1648 70.8855 36.488 70.695 36.6949L57.7003 50.8073C57.5078 51.0164 57.1801 51.0232 56.9791 50.8224L46.2152 40.0677C46.0079 39.8605 45.6677 39.8753 45.4791 40.0996L29.2662 59.3843C29.1905 59.4744 29.1489 59.5884 29.1489 59.7061V65.7286Z" fill="#FFBF00"/>
</svg>
