<svg width="230" height="50" viewBox="0 0 230 50" fill="none" xmlns="http://www.w3.org/2000/svg">
<g filter="url(#filter0_d_13_5)">
<path d="M53.7153 13.5572C45.4397 7.55972 39.8427 9.81832 28.5438 24.7832C28.5438 -0.590743 49.6924 -7.66477 60.9564 9.09738C59.863 11.8474 58.3228 12.6801 53.7153 13.5572Z" fill="#EC0066"/>
<path d="M28.5436 25.35L37.0483 15.5701C34.8583 30.1728 37.5582 40.6464 53.7656 36.8062C50.7726 40.6757 51.2106 45.4665 54.6782 48.7832C36.8336 51.9834 32.0425 45.5394 28.5436 25.35Z" fill="#A7035F"/>
<path d="M11.2194 0H32.5076C33.2304 4.18487 34.181 6.78886 28.7678 11.2923C18.5552 11.2923 8.19883 9.86091 0 15.1095C1.80192 6.35665 3.80997 2.28826 11.2194 0Z" fill="#FFBF00"/>
<path d="M11.2105 20.8388C8.35925 19.8255 6.99778 16.3192 8.33599 12.8713L6.18013 13.3493L4.16799 13.9867L2.01214 14.9428L0 16.2176C0.786582 24.6624 0.336199 27.2146 7.81115 31.1966H24.8642L24.8666 31.2003C27.3343 35.0716 27.3353 35.0732 24.8642 39.3235H1.72469C2.23482 45.3229 3.773 47.6887 8.91089 50H29.3197C38.5873 37.054 39.0509 31.7458 28.6011 20.8388H11.2105Z" fill="#EC0066"/>
<ellipse cx="57.5249" cy="42.288" rx="5.47511" ry="6.90981" fill="#FFBF00"/>
</g>
<path d="M77.4435 6.04724C77.3725 5.33109 77.0677 4.77475 76.5291 4.37821C75.9905 3.98166 75.2596 3.78339 74.3363 3.78339C73.7089 3.78339 73.1792 3.87217 72.7472 4.04973C72.3151 4.22136 71.9837 4.46107 71.7528 4.76883C71.5279 5.0766 71.4155 5.42579 71.4155 5.81642C71.4037 6.14194 71.4717 6.42603 71.6197 6.66869C71.7736 6.91135 71.9837 7.12146 72.25 7.29902C72.5163 7.47065 72.8241 7.62158 73.1733 7.75179C73.5225 7.87608 73.8954 7.98261 74.2919 8.07139L75.9254 8.46201C76.7185 8.63957 77.4465 8.87631 78.1094 9.17224C78.7723 9.46817 79.3464 9.83216 79.8317 10.2642C80.317 10.6963 80.6928 11.2053 80.9592 11.7912C81.2314 12.3771 81.3705 13.0489 81.3764 13.8065C81.3705 14.9192 81.0864 15.8839 80.5241 16.7006C79.9678 17.5115 79.1629 18.1418 78.1094 18.5916C77.0618 19.0355 75.7982 19.2575 74.3185 19.2575C72.8507 19.2575 71.5723 19.0326 70.4833 18.5827C69.4002 18.1329 68.5539 17.4671 67.9443 16.5852C67.3406 15.6974 67.0239 14.5996 66.9943 13.2915H70.7141C70.7556 13.9012 70.9302 14.4102 71.2379 14.8185C71.5516 15.221 71.9689 15.5258 72.4897 15.733C73.0165 15.9342 73.6113 16.0348 74.2742 16.0348C74.9252 16.0348 75.4904 15.9401 75.9698 15.7507C76.4551 15.5613 76.831 15.2979 77.0973 14.9606C77.3636 14.6232 77.4968 14.2356 77.4968 13.7976C77.4968 13.3892 77.3755 13.0459 77.1328 12.7678C76.8961 12.4896 76.5469 12.2528 76.0852 12.0575C75.6295 11.8622 75.0702 11.6847 74.4073 11.5249L72.4276 11.0277C70.8947 10.6548 69.6843 10.0719 68.7965 9.27877C67.9087 8.48569 67.4678 7.41739 67.4737 6.07387C67.4678 4.97302 67.7608 4.01125 68.3526 3.18858C68.9504 2.3659 69.7701 1.72373 70.8118 1.26208C71.8535 0.800435 73.0372 0.569611 74.3629 0.569611C75.7124 0.569611 76.8902 0.800435 77.8963 1.26208C78.9084 1.72373 79.6955 2.3659 80.2578 3.18858C80.8201 4.01125 81.1101 4.96414 81.1278 6.04724H77.4435ZM86.6809 19H82.5616L88.8382 0.81819H93.7921L100.06 19H95.9405L91.3862 4.97302H91.2441L86.6809 19ZM86.4235 11.8533H96.1536V14.854H86.4235V11.8533ZM102.248 19V0.81819H109.422C110.795 0.81819 111.967 1.06381 112.937 1.55505C113.914 2.04037 114.657 2.72989 115.166 3.62359C115.68 4.51137 115.938 5.556 115.938 6.75747C115.938 7.96485 115.677 9.00356 115.157 9.87359C114.636 10.7377 113.881 11.4006 112.893 11.8622C111.91 12.3239 110.721 12.5547 109.324 12.5547H104.521V9.46521H108.702C109.436 9.46521 110.046 9.36459 110.531 9.16336C111.017 8.96213 111.378 8.66028 111.614 8.25782C111.857 7.85536 111.978 7.35524 111.978 6.75747C111.978 6.15377 111.857 5.64478 111.614 5.23048C111.378 4.81618 111.014 4.50249 110.522 4.28943C110.037 4.07044 109.425 3.96095 108.685 3.96095H106.092V19H102.248ZM112.067 10.7259L116.586 19H112.342L107.921 10.7259H112.067ZM125.1 19H118.655V0.81819H125.153C126.982 0.81819 128.556 1.18218 129.876 1.91017C131.196 2.63223 132.211 3.67094 132.921 5.02629C133.637 6.38164 133.995 8.00332 133.995 9.89135C133.995 11.7853 133.637 13.4129 132.921 14.7741C132.211 16.1354 131.19 17.18 129.858 17.908C128.533 18.636 126.946 19 125.1 19ZM122.499 15.7063H124.94C126.076 15.7063 127.032 15.5051 127.808 15.1026C128.589 14.6942 129.175 14.0639 129.565 13.2116C129.962 12.3535 130.16 11.2467 130.16 9.89135C130.16 8.54783 129.962 7.44994 129.565 6.59767C129.175 5.74539 128.592 5.11803 127.816 4.71556C127.041 4.3131 126.085 4.11187 124.949 4.11187H122.499V15.7063ZM138.951 19H134.832L141.109 0.81819H146.063L152.33 19H148.211L143.657 4.97302H143.515L138.951 19ZM138.694 11.8533H148.424V14.854H138.694V11.8533ZM83.6225 37.1836H79.734C79.663 36.6805 79.518 36.2337 79.299 35.843C79.08 35.4465 78.7989 35.1091 78.4556 34.831C78.1123 34.5528 77.7158 34.3397 77.266 34.1918C76.8221 34.0438 76.3397 33.9698 75.8189 33.9698C74.8778 33.9698 74.0581 34.2036 73.3597 34.6712C72.6613 35.1328 72.1198 35.8075 71.7351 36.6953C71.3504 37.5772 71.158 38.6484 71.158 39.9091C71.158 41.2053 71.3504 42.2943 71.7351 43.1761C72.1257 44.058 72.6702 44.7238 73.3686 45.1737C74.067 45.6235 74.8749 45.8484 75.7923 45.8484C76.3072 45.8484 76.7836 45.7803 77.2216 45.6442C77.6655 45.508 78.0591 45.3098 78.4023 45.0494C78.7456 44.783 79.0297 44.4605 79.2546 44.0817C79.4854 43.7029 79.6452 43.2708 79.734 42.7855L83.6225 42.8033C83.5219 43.6378 83.2704 44.4427 82.8679 45.218C82.4714 45.9875 81.9357 46.677 81.261 47.2866C80.5922 47.8903 79.7932 48.3697 78.864 48.7248C77.9407 49.074 76.8961 49.2486 75.7301 49.2486C74.1084 49.2486 72.6584 48.8816 71.38 48.1477C70.1075 47.4138 69.1013 46.3514 68.3615 44.9606C67.6276 43.5697 67.2607 41.8859 67.2607 39.9091C67.2607 37.9264 67.6335 36.2396 68.3793 34.8487C69.125 33.4579 70.1371 32.3984 71.4155 31.6705C72.6939 30.9366 74.1321 30.5696 75.7301 30.5696C76.7836 30.5696 77.7602 30.7176 78.6598 31.0135C79.5653 31.3094 80.3673 31.7415 81.0657 32.3097C81.7641 32.8719 82.3323 33.5614 82.7702 34.3782C83.2141 35.195 83.4982 36.1301 83.6225 37.1836ZM103.087 39.9091C103.087 41.8918 102.711 43.5786 101.96 44.9695C101.214 46.3603 100.196 47.4227 98.9057 48.1566C97.6214 48.8846 96.1773 49.2486 94.5733 49.2486C92.9576 49.2486 91.5075 48.8816 90.2232 48.1477C88.9389 47.4138 87.9238 46.3514 87.1781 44.9606C86.4324 43.5697 86.0595 41.8859 86.0595 39.9091C86.0595 37.9264 86.4324 36.2396 87.1781 34.8487C87.9238 33.4579 88.9389 32.3984 90.2232 31.6705C91.5075 30.9366 92.9576 30.5696 94.5733 30.5696C96.1773 30.5696 97.6214 30.9366 98.9057 31.6705C100.196 32.3984 101.214 33.4579 101.96 34.8487C102.711 36.2396 103.087 37.9264 103.087 39.9091ZM99.1898 39.9091C99.1898 38.6248 98.9975 37.5417 98.6127 36.6598C98.234 35.7779 97.6983 35.1091 97.0059 34.6534C96.3134 34.1977 95.5025 33.9698 94.5733 33.9698C93.6441 33.9698 92.8333 34.1977 92.1408 34.6534C91.4483 35.1091 90.9097 35.7779 90.525 36.6598C90.1462 37.5417 89.9569 38.6248 89.9569 39.9091C89.9569 41.1934 90.1462 42.2765 90.525 43.1584C90.9097 44.0402 91.4483 44.709 92.1408 45.1648C92.8333 45.6205 93.6441 45.8484 94.5733 45.8484C95.5025 45.8484 96.3134 45.6205 97.0059 45.1648C97.6983 44.709 98.234 44.0402 98.6127 43.1584C98.9975 42.2765 99.1898 41.1934 99.1898 39.9091ZM121.143 30.8182V49H117.822L109.912 37.5565H109.779V49H105.935V30.8182H109.308L117.156 42.2528H117.316V30.8182H121.143ZM134.182 36.0472C134.111 35.3311 133.806 34.7747 133.267 34.3782C132.729 33.9817 131.998 33.7834 131.075 33.7834C130.447 33.7834 129.918 33.8722 129.485 34.0497C129.053 34.2214 128.722 34.4611 128.491 34.7688C128.266 35.0766 128.154 35.4258 128.154 35.8164C128.142 36.1419 128.21 36.426 128.358 36.6687C128.512 36.9113 128.722 37.1214 128.988 37.299C129.255 37.4706 129.562 37.6216 129.912 37.7518C130.261 37.8761 130.634 37.9826 131.03 38.0714L132.664 38.462C133.457 38.6396 134.185 38.8763 134.848 39.1722C135.511 39.4682 136.085 39.8321 136.57 40.2642C137.055 40.6963 137.431 41.2053 137.697 41.7912C137.97 42.3771 138.109 43.0489 138.115 43.8065C138.109 44.9192 137.825 45.8839 137.262 46.7006C136.706 47.5115 135.901 48.1418 134.848 48.5916C133.8 49.0355 132.537 49.2575 131.057 49.2575C129.589 49.2575 128.311 49.0326 127.222 48.5827C126.139 48.1329 125.292 47.4671 124.683 46.5852C124.079 45.6974 123.762 44.5996 123.733 43.2915H127.452C127.494 43.9012 127.668 44.4102 127.976 44.8185C128.29 45.221 128.707 45.5258 129.228 45.733C129.755 45.9342 130.35 46.0348 131.012 46.0348C131.664 46.0348 132.229 45.9401 132.708 45.7507C133.193 45.5613 133.569 45.2979 133.836 44.9606C134.102 44.6232 134.235 44.2356 134.235 43.7976C134.235 43.3892 134.114 43.0459 133.871 42.7678C133.634 42.4896 133.285 42.2528 132.824 42.0575C132.368 41.8622 131.809 41.6847 131.146 41.5249L129.166 41.0277C127.633 40.6548 126.423 40.0719 125.535 39.2788C124.647 38.4857 124.206 37.4174 124.212 36.0739C124.206 34.973 124.499 34.0112 125.091 33.1886C125.689 32.3659 126.508 31.7237 127.55 31.2621C128.592 30.8004 129.775 30.5696 131.101 30.5696C132.451 30.5696 133.628 30.8004 134.635 31.2621C135.647 31.7237 136.434 32.3659 136.996 33.1886C137.558 34.0112 137.848 34.9641 137.866 36.0472H134.182ZM151.931 30.8182H155.775V42.6257C155.775 43.9515 155.458 45.1115 154.825 46.1058C154.198 47.1001 153.319 47.8755 152.188 48.4318C151.058 48.9822 149.741 49.2575 148.238 49.2575C146.728 49.2575 145.409 48.9822 144.278 48.4318C143.148 47.8755 142.269 47.1001 141.641 46.1058C141.014 45.1115 140.7 43.9515 140.7 42.6257V30.8182H144.545V42.2972C144.545 42.9897 144.695 43.6052 144.997 44.1438C145.305 44.6824 145.737 45.1056 146.293 45.4134C146.85 45.7211 147.498 45.875 148.238 45.875C148.983 45.875 149.632 45.7211 150.182 45.4134C150.738 45.1056 151.167 44.6824 151.469 44.1438C151.777 43.6052 151.931 42.9897 151.931 42.2972V30.8182ZM158.938 49V30.8182H162.782V45.8306H170.577V49H158.938ZM170.159 33.9876V30.8182H185.092V33.9876H179.525V49H175.726V33.9876H170.159ZM191.395 30.8182V49H187.551V30.8182H191.395ZM209.766 30.8182V49H206.445L198.535 37.5565H198.402V49H194.558V30.8182H197.931L205.779 42.2528H205.939V30.8182H209.766ZM224.998 36.6953C224.873 36.2633 224.699 35.8815 224.474 35.5501C224.249 35.2127 223.974 34.9286 223.648 34.6978C223.329 34.4611 222.962 34.2805 222.547 34.1562C222.139 34.032 221.686 33.9698 221.189 33.9698C220.26 33.9698 219.443 34.2006 218.739 34.6623C218.04 35.1239 217.496 35.7957 217.105 36.6776C216.715 37.5535 216.519 38.6248 216.519 39.8913C216.519 41.1579 216.712 42.2351 217.096 43.1229C217.481 44.0107 218.026 44.6883 218.73 45.1559C219.434 45.6175 220.266 45.8484 221.225 45.8484C222.095 45.8484 222.837 45.6945 223.453 45.3867C224.074 45.073 224.548 44.6321 224.873 44.0639C225.205 43.4957 225.371 42.824 225.371 42.0487L226.152 42.1641H221.464V39.2699H229.073V41.5604C229.073 43.1584 228.735 44.5315 228.061 45.6797C227.386 46.822 226.457 47.7038 225.273 48.3253C224.089 48.9408 222.734 49.2486 221.207 49.2486C219.502 49.2486 218.005 48.8728 216.715 48.1211C215.424 47.3635 214.418 46.2893 213.696 44.8984C212.98 43.5017 212.622 41.8445 212.622 39.9268C212.622 38.4531 212.835 37.1392 213.261 35.9851C213.693 34.825 214.297 33.8426 215.072 33.0376C215.848 32.2327 216.75 31.6201 217.78 31.1999C218.81 30.7797 219.925 30.5696 221.127 30.5696C222.157 30.5696 223.116 30.7205 224.003 31.0224C224.891 31.3183 225.678 31.7385 226.365 32.283C227.057 32.8275 227.623 33.4756 228.061 34.2273C228.499 34.973 228.78 35.7957 228.904 36.6953H224.998Z" fill="white"/>
<defs>
<filter id="filter0_d_13_5" x="-4" y="0" width="70.9999" height="58" filterUnits="userSpaceOnUse" color-interpolation-filters="sRGB">
<feFlood flood-opacity="0" result="BackgroundImageFix"/>
<feColorMatrix in="SourceAlpha" type="matrix" values="0 0 0 0 0 0 0 0 0 0 0 0 0 0 0 0 0 0 127 0" result="hardAlpha"/>
<feOffset dy="4"/>
<feGaussianBlur stdDeviation="2"/>
<feComposite in2="hardAlpha" operator="out"/>
<feColorMatrix type="matrix" values="0 0 0 0 0 0 0 0 0 0 0 0 0 0 0 0 0 0 0.25 0"/>
<feBlend mode="normal" in2="BackgroundImageFix" result="effect1_dropShadow_13_5"/>
<feBlend mode="normal" in="SourceGraphic" in2="effect1_dropShadow_13_5" result="shape"/>
</filter>
</defs>
</svg>
