<svg width="100" height="100" viewBox="0 0 100 100" fill="none" xmlns="http://www.w3.org/2000/svg">
<circle cx="50" cy="50" r="50" fill="black"/>
<circle cx="50" cy="50" r="50" fill="black"/>
<path d="M63.2635 68.2635C64.0445 69.0445 64.0494 70.3177 63.2084 71.0339C60.5978 73.2569 57.552 74.924 54.2571 75.9235C50.3229 77.1169 46.155 77.3217 42.1227 76.5196C38.0905 75.7176 34.3182 73.9334 31.1402 71.3253C27.9621 68.7171 25.4763 65.3654 23.903 61.5671C22.3297 57.7688 21.7174 53.641 22.1204 49.5496C22.5234 45.4581 23.9292 41.5291 26.2133 38.1107C28.4974 34.6923 31.5893 31.89 35.2151 29.952C38.2516 28.3289 41.5842 27.354 45.0021 27.08C46.1031 26.9917 47 27.8954 47 29V51.1716C47 51.702 47.2107 52.2107 47.5858 52.5858L63.2635 68.2635Z" fill="#FFBF00"/>
<path d="M74 50C75.1046 50 76.0074 49.1034 75.9287 48.0017C75.7242 45.1402 75.0814 42.3264 74.0209 39.6675C72.7142 36.3918 70.7991 33.4153 68.3848 30.9081C65.9705 28.4009 63.1042 26.4121 59.9498 25.0553C57.4122 23.9637 54.7281 23.2983 51.9979 23.0798C50.8968 22.9917 50 23.8954 50 25L50 48C50 49.1046 50.8954 50 52 50H74Z" fill="#FFBF00"/>
<path d="M75 53C76.1046 53 77.0095 53.8973 76.9081 54.9972C76.6806 57.4646 76.0324 59.8894 74.9828 62.1844C73.8945 64.5639 72.392 66.7658 70.5361 68.7075C69.8258 69.4507 68.6578 69.4448 67.8958 68.7547L54.3452 56.4824C52.9888 55.254 53.8578 53 55.6877 53H75Z" fill="#FFBF00"/>
</svg>
