<svg width="100" height="100" viewBox="0 0 100 100" fill="none" xmlns="http://www.w3.org/2000/svg">
<circle cx="50" cy="50" r="50" fill="black"/>
<path d="M30 26C30 23.2386 32.2386 21 35 21H65C67.7614 21 70 23.2386 70 26V76H30V26Z" fill="#FFBF00"/>
<rect x="37" y="27" width="7" height="7" rx="1" fill="black"/>
<rect x="56" y="27" width="7" height="7" rx="1" fill="black"/>
<rect x="37" y="40" width="7" height="7" rx="1" fill="black"/>
<rect x="56" y="40" width="7" height="7" rx="1" fill="black"/>
<rect x="37" y="53" width="7" height="7" rx="1" fill="black"/>
<rect x="56" y="53" width="7" height="7" rx="1" fill="black"/>
<rect x="46" y="63" width="8" height="11" rx="1" fill="black"/>
<path d="M25 79C25 77.3431 26.3431 76 28 76H73C74.6569 76 76 77.3431 76 79H25Z" fill="#FFBF00"/>
</svg>
