<svg width="100" height="100" viewBox="0 0 100 100" fill="none" xmlns="http://www.w3.org/2000/svg">
<circle cx="50" cy="50" r="50" fill="black"/>
<path d="M59.1779 42C59.1779 46.9706 55.1484 51 50.1779 51C45.2073 51 41.1779 46.9706 41.1779 42C41.1779 37.0294 45.2073 33 50.1779 33C55.1484 33 59.1779 37.0294 59.1779 42Z" fill="#FFBF00"/>
<path d="M45.1779 52.5C49.0831 54.6618 51.2726 54.9655 55.1779 52.5C62.1779 52.5 68.1779 58 64.1779 67H37.1779C32.1779 60.5 37.1779 52.5 45.1779 52.5Z" fill="#FFBF00"/>
<path d="M59.1779 42C59.1779 46.9706 55.1484 51 50.1779 51C45.2073 51 41.1779 46.9706 41.1779 42C41.1779 37.0294 45.2073 33 50.1779 33C55.1484 33 59.1779 37.0294 59.1779 42Z" fill="#FFBF00"/>
<path d="M38.0234 43C38.0234 45.7614 35.8111 48 33.082 48C30.353 48 28.1406 45.7614 28.1406 43C28.1406 40.2386 30.353 38 33.082 38C35.8111 38 38.0234 40.2386 38.0234 43Z" fill="#FFBF00"/>
<path d="M38.0234 43C38.0234 45.7614 35.8111 48 33.082 48C30.353 48 28.1406 45.7614 28.1406 43C28.1406 40.2386 30.353 38 33.082 38C35.8111 38 38.0234 40.2386 38.0234 43Z" fill="#FFBF00"/>
<path d="M40 50.5H28.1406C24.6816 51.5 23.6934 59.5 27.1523 60H33.082C32.8003 56.8973 35.0586 53.5 40 50.5Z" fill="#FFBF00"/>
<path d="M62.1544 43C62.1544 45.7614 64.3668 48 67.0958 48C69.8249 48 72.0372 45.7614 72.0372 43C72.0372 40.2386 69.8249 38 67.0958 38C64.3668 38 62.1544 40.2386 62.1544 43Z" fill="#FFBF00"/>
<path d="M62.1544 43C62.1544 45.7614 64.3668 48 67.0958 48C69.8249 48 72.0372 45.7614 72.0372 43C72.0372 40.2386 69.8249 38 67.0958 38C64.3668 38 62.1544 40.2386 62.1544 43Z" fill="#FFBF00"/>
<path d="M60.1779 50.5H72.0372C75.4962 51.5 76.4845 59.5 73.0255 60H67.0958C67.3775 56.8973 65.1193 53.5 60.1779 50.5Z" fill="#FFBF00"/>
</svg>
